<?xml version="1.0" encoding="UTF-8" standalone="no"?>
<!DOCTYPE svg PUBLIC "-//W3C//DTD SVG 1.1//EN"
 "http://www.w3.org/Graphics/SVG/1.1/DTD/svg11.dtd">
<!-- Generated by graphviz version 2.50.0 (0)
 -->
<!-- Title: G Pages: 1 -->
<svg width="387pt" height="848pt"
 viewBox="0.00 0.00 290.00 636.00" xmlns="http://www.w3.org/2000/svg" xmlns:xlink="http://www.w3.org/1999/xlink">
<g id="graph0" class="graph" transform="scale(1.33 1.33) rotate(0) translate(4 632)">
<title>G</title>
<polygon fill="white" stroke="transparent" points="-4,4 -4,-632 286,-632 286,4 -4,4"/>
<!-- 2228208497856 -->
<g id="node1" class="node">
<title>2228208497856</title>
<polygon fill="none" stroke="black" points="15,-581.5 15,-627.5 267,-627.5 267,-581.5 15,-581.5"/>
<text text-anchor="middle" x="53.5" y="-612.3" font-family="Times New Roman,serif" font-size="14.00">input_6</text>
<polyline fill="none" stroke="black" points="15,-604.5 92,-604.5 "/>
<text text-anchor="middle" x="53.5" y="-589.3" font-family="Times New Roman,serif" font-size="14.00">InputLayer</text>
<polyline fill="none" stroke="black" points="92,-581.5 92,-627.5 "/>
<text text-anchor="middle" x="119.5" y="-612.3" font-family="Times New Roman,serif" font-size="14.00">input:</text>
<polyline fill="none" stroke="black" points="92,-604.5 147,-604.5 "/>
<text text-anchor="middle" x="119.5" y="-589.3" font-family="Times New Roman,serif" font-size="14.00">output:</text>
<polyline fill="none" stroke="black" points="147,-581.5 147,-627.5 "/>
<text text-anchor="middle" x="207" y="-612.3" font-family="Times New Roman,serif" font-size="14.00">[(None, 35, 55, 1)]</text>
<polyline fill="none" stroke="black" points="147,-604.5 267,-604.5 "/>
<text text-anchor="middle" x="207" y="-589.3" font-family="Times New Roman,serif" font-size="14.00">[(None, 35, 55, 1)]</text>
</g>
<!-- 2229306474016 -->
<g id="node2" class="node">
<title>2229306474016</title>
<polygon fill="none" stroke="black" points="16,-498.5 16,-544.5 266,-544.5 266,-498.5 16,-498.5"/>
<text text-anchor="middle" x="54.5" y="-529.3" font-family="Times New Roman,serif" font-size="14.00">conv2d_40</text>
<polyline fill="none" stroke="black" points="16,-521.5 93,-521.5 "/>
<text text-anchor="middle" x="54.5" y="-506.3" font-family="Times New Roman,serif" font-size="14.00">Conv2D</text>
<polyline fill="none" stroke="black" points="93,-498.5 93,-544.5 "/>
<text text-anchor="middle" x="120.5" y="-529.3" font-family="Times New Roman,serif" font-size="14.00">input:</text>
<polyline fill="none" stroke="black" points="93,-521.5 148,-521.5 "/>
<text text-anchor="middle" x="120.5" y="-506.3" font-family="Times New Roman,serif" font-size="14.00">output:</text>
<polyline fill="none" stroke="black" points="148,-498.5 148,-544.5 "/>
<text text-anchor="middle" x="207" y="-529.3" font-family="Times New Roman,serif" font-size="14.00">(None, 35, 55, 1)</text>
<polyline fill="none" stroke="black" points="148,-521.5 266,-521.5 "/>
<text text-anchor="middle" x="207" y="-506.3" font-family="Times New Roman,serif" font-size="14.00">(None, 18, 28, 96)</text>
</g>
<!-- 2228208497856&#45;&gt;2229306474016 -->
<g id="edge1" class="edge">
<title>2228208497856&#45;&gt;2229306474016</title>
<path fill="none" stroke="black" d="M141,-581.37C141,-573.15 141,-563.66 141,-554.73"/>
<polygon fill="black" stroke="black" points="144.5,-554.61 141,-544.61 137.5,-554.61 144.5,-554.61"/>
</g>
<!-- 2229306566448 -->
<g id="node3" class="node">
<title>2229306566448</title>
<polygon fill="none" stroke="black" points="16,-415.5 16,-461.5 266,-461.5 266,-415.5 16,-415.5"/>
<text text-anchor="middle" x="54.5" y="-446.3" font-family="Times New Roman,serif" font-size="14.00">conv2d_41</text>
<polyline fill="none" stroke="black" points="16,-438.5 93,-438.5 "/>
<text text-anchor="middle" x="54.5" y="-423.3" font-family="Times New Roman,serif" font-size="14.00">Conv2D</text>
<polyline fill="none" stroke="black" points="93,-415.5 93,-461.5 "/>
<text text-anchor="middle" x="120.5" y="-446.3" font-family="Times New Roman,serif" font-size="14.00">input:</text>
<polyline fill="none" stroke="black" points="93,-438.5 148,-438.5 "/>
<text text-anchor="middle" x="120.5" y="-423.3" font-family="Times New Roman,serif" font-size="14.00">output:</text>
<polyline fill="none" stroke="black" points="148,-415.5 148,-461.5 "/>
<text text-anchor="middle" x="207" y="-446.3" font-family="Times New Roman,serif" font-size="14.00">(None, 18, 28, 96)</text>
<polyline fill="none" stroke="black" points="148,-438.5 266,-438.5 "/>
<text text-anchor="middle" x="207" y="-423.3" font-family="Times New Roman,serif" font-size="14.00">(None, 9, 14, 64)</text>
</g>
<!-- 2229306474016&#45;&gt;2229306566448 -->
<g id="edge2" class="edge">
<title>2229306474016&#45;&gt;2229306566448</title>
<path fill="none" stroke="black" d="M141,-498.37C141,-490.15 141,-480.66 141,-471.73"/>
<polygon fill="black" stroke="black" points="144.5,-471.61 141,-461.61 137.5,-471.61 144.5,-471.61"/>
</g>
<!-- 2229306470608 -->
<g id="node4" class="node">
<title>2229306470608</title>
<polygon fill="none" stroke="black" points="0,-332.5 0,-378.5 282,-378.5 282,-332.5 0,-332.5"/>
<text text-anchor="middle" x="58" y="-363.3" font-family="Times New Roman,serif" font-size="14.00">max_pooling2d_2</text>
<polyline fill="none" stroke="black" points="0,-355.5 116,-355.5 "/>
<text text-anchor="middle" x="58" y="-340.3" font-family="Times New Roman,serif" font-size="14.00">MaxPooling2D</text>
<polyline fill="none" stroke="black" points="116,-332.5 116,-378.5 "/>
<text text-anchor="middle" x="143.5" y="-363.3" font-family="Times New Roman,serif" font-size="14.00">input:</text>
<polyline fill="none" stroke="black" points="116,-355.5 171,-355.5 "/>
<text text-anchor="middle" x="143.5" y="-340.3" font-family="Times New Roman,serif" font-size="14.00">output:</text>
<polyline fill="none" stroke="black" points="171,-332.5 171,-378.5 "/>
<text text-anchor="middle" x="226.5" y="-363.3" font-family="Times New Roman,serif" font-size="14.00">(None, 9, 14, 64)</text>
<polyline fill="none" stroke="black" points="171,-355.5 282,-355.5 "/>
<text text-anchor="middle" x="226.5" y="-340.3" font-family="Times New Roman,serif" font-size="14.00">(None, 9, 14, 64)</text>
</g>
<!-- 2229306566448&#45;&gt;2229306470608 -->
<g id="edge3" class="edge">
<title>2229306566448&#45;&gt;2229306470608</title>
<path fill="none" stroke="black" d="M141,-415.37C141,-407.15 141,-397.66 141,-388.73"/>
<polygon fill="black" stroke="black" points="144.5,-388.61 141,-378.61 137.5,-388.61 144.5,-388.61"/>
</g>
<!-- 2229306512192 -->
<g id="node5" class="node">
<title>2229306512192</title>
<polygon fill="none" stroke="black" points="19.5,-249.5 19.5,-295.5 262.5,-295.5 262.5,-249.5 19.5,-249.5"/>
<text text-anchor="middle" x="58" y="-280.3" font-family="Times New Roman,serif" font-size="14.00">conv2d_42</text>
<polyline fill="none" stroke="black" points="19.5,-272.5 96.5,-272.5 "/>
<text text-anchor="middle" x="58" y="-257.3" font-family="Times New Roman,serif" font-size="14.00">Conv2D</text>
<polyline fill="none" stroke="black" points="96.5,-249.5 96.5,-295.5 "/>
<text text-anchor="middle" x="124" y="-280.3" font-family="Times New Roman,serif" font-size="14.00">input:</text>
<polyline fill="none" stroke="black" points="96.5,-272.5 151.5,-272.5 "/>
<text text-anchor="middle" x="124" y="-257.3" font-family="Times New Roman,serif" font-size="14.00">output:</text>
<polyline fill="none" stroke="black" points="151.5,-249.5 151.5,-295.5 "/>
<text text-anchor="middle" x="207" y="-280.3" font-family="Times New Roman,serif" font-size="14.00">(None, 9, 14, 64)</text>
<polyline fill="none" stroke="black" points="151.5,-272.5 262.5,-272.5 "/>
<text text-anchor="middle" x="207" y="-257.3" font-family="Times New Roman,serif" font-size="14.00">(None, 9, 14, 32)</text>
</g>
<!-- 2229306470608&#45;&gt;2229306512192 -->
<g id="edge4" class="edge">
<title>2229306470608&#45;&gt;2229306512192</title>
<path fill="none" stroke="black" d="M141,-332.37C141,-324.15 141,-314.66 141,-305.73"/>
<polygon fill="black" stroke="black" points="144.5,-305.61 141,-295.61 137.5,-305.61 144.5,-305.61"/>
</g>
<!-- 2229306514928 -->
<g id="node6" class="node">
<title>2229306514928</title>
<polygon fill="none" stroke="black" points="19.5,-166.5 19.5,-212.5 262.5,-212.5 262.5,-166.5 19.5,-166.5"/>
<text text-anchor="middle" x="58" y="-197.3" font-family="Times New Roman,serif" font-size="14.00">conv2d_43</text>
<polyline fill="none" stroke="black" points="19.5,-189.5 96.5,-189.5 "/>
<text text-anchor="middle" x="58" y="-174.3" font-family="Times New Roman,serif" font-size="14.00">Conv2D</text>
<polyline fill="none" stroke="black" points="96.5,-166.5 96.5,-212.5 "/>
<text text-anchor="middle" x="124" y="-197.3" font-family="Times New Roman,serif" font-size="14.00">input:</text>
<polyline fill="none" stroke="black" points="96.5,-189.5 151.5,-189.5 "/>
<text text-anchor="middle" x="124" y="-174.3" font-family="Times New Roman,serif" font-size="14.00">output:</text>
<polyline fill="none" stroke="black" points="151.5,-166.5 151.5,-212.5 "/>
<text text-anchor="middle" x="207" y="-197.3" font-family="Times New Roman,serif" font-size="14.00">(None, 9, 14, 32)</text>
<polyline fill="none" stroke="black" points="151.5,-189.5 262.5,-189.5 "/>
<text text-anchor="middle" x="207" y="-174.3" font-family="Times New Roman,serif" font-size="14.00">(None, 9, 14, 32)</text>
</g>
<!-- 2229306512192&#45;&gt;2229306514928 -->
<g id="edge5" class="edge">
<title>2229306512192&#45;&gt;2229306514928</title>
<path fill="none" stroke="black" d="M141,-249.37C141,-241.15 141,-231.66 141,-222.73"/>
<polygon fill="black" stroke="black" points="144.5,-222.61 141,-212.61 137.5,-222.61 144.5,-222.61"/>
</g>
<!-- 2229306415040 -->
<g id="node7" class="node">
<title>2229306415040</title>
<polygon fill="none" stroke="black" points="19.5,-83.5 19.5,-129.5 262.5,-129.5 262.5,-83.5 19.5,-83.5"/>
<text text-anchor="middle" x="58" y="-114.3" font-family="Times New Roman,serif" font-size="14.00">conv2d_44</text>
<polyline fill="none" stroke="black" points="19.5,-106.5 96.5,-106.5 "/>
<text text-anchor="middle" x="58" y="-91.3" font-family="Times New Roman,serif" font-size="14.00">Conv2D</text>
<polyline fill="none" stroke="black" points="96.5,-83.5 96.5,-129.5 "/>
<text text-anchor="middle" x="124" y="-114.3" font-family="Times New Roman,serif" font-size="14.00">input:</text>
<polyline fill="none" stroke="black" points="96.5,-106.5 151.5,-106.5 "/>
<text text-anchor="middle" x="124" y="-91.3" font-family="Times New Roman,serif" font-size="14.00">output:</text>
<polyline fill="none" stroke="black" points="151.5,-83.5 151.5,-129.5 "/>
<text text-anchor="middle" x="207" y="-114.3" font-family="Times New Roman,serif" font-size="14.00">(None, 9, 14, 32)</text>
<polyline fill="none" stroke="black" points="151.5,-106.5 262.5,-106.5 "/>
<text text-anchor="middle" x="207" y="-91.3" font-family="Times New Roman,serif" font-size="14.00">(None, 9, 14, 2)</text>
</g>
<!-- 2229306514928&#45;&gt;2229306415040 -->
<g id="edge6" class="edge">
<title>2229306514928&#45;&gt;2229306415040</title>
<path fill="none" stroke="black" d="M141,-166.37C141,-158.15 141,-148.66 141,-139.73"/>
<polygon fill="black" stroke="black" points="144.5,-139.61 141,-129.61 137.5,-139.61 144.5,-139.61"/>
</g>
<!-- 2229306565104 -->
<g id="node8" class="node">
<title>2229306565104</title>
<polygon fill="none" stroke="black" points="26,-0.5 26,-46.5 256,-46.5 256,-0.5 26,-0.5"/>
<text text-anchor="middle" x="61.5" y="-31.3" font-family="Times New Roman,serif" font-size="14.00">reshape_2</text>
<polyline fill="none" stroke="black" points="26,-23.5 97,-23.5 "/>
<text text-anchor="middle" x="61.5" y="-8.3" font-family="Times New Roman,serif" font-size="14.00">Reshape</text>
<polyline fill="none" stroke="black" points="97,-0.5 97,-46.5 "/>
<text text-anchor="middle" x="124.5" y="-31.3" font-family="Times New Roman,serif" font-size="14.00">input:</text>
<polyline fill="none" stroke="black" points="97,-23.5 152,-23.5 "/>
<text text-anchor="middle" x="124.5" y="-8.3" font-family="Times New Roman,serif" font-size="14.00">output:</text>
<polyline fill="none" stroke="black" points="152,-0.5 152,-46.5 "/>
<text text-anchor="middle" x="204" y="-31.3" font-family="Times New Roman,serif" font-size="14.00">(None, 9, 14, 2)</text>
<polyline fill="none" stroke="black" points="152,-23.5 256,-23.5 "/>
<text text-anchor="middle" x="204" y="-8.3" font-family="Times New Roman,serif" font-size="14.00">(None, 126, 2)</text>
</g>
<!-- 2229306415040&#45;&gt;2229306565104 -->
<g id="edge7" class="edge">
<title>2229306415040&#45;&gt;2229306565104</title>
<path fill="none" stroke="black" d="M141,-83.37C141,-75.15 141,-65.66 141,-56.73"/>
<polygon fill="black" stroke="black" points="144.5,-56.61 141,-46.61 137.5,-56.61 144.5,-56.61"/>
</g>
</g>
</svg>
