<?xml version="1.0" encoding="UTF-8" standalone="no"?>
<!DOCTYPE svg PUBLIC "-//W3C//DTD SVG 1.1//EN"
 "http://www.w3.org/Graphics/SVG/1.1/DTD/svg11.dtd">
<!-- Generated by graphviz version 2.50.0 (0)
 -->
<!-- Title: G Pages: 1 -->
<svg width="510pt" height="2065pt"
 viewBox="0.00 0.00 382.50 1549.00" xmlns="http://www.w3.org/2000/svg" xmlns:xlink="http://www.w3.org/1999/xlink">
<g id="graph0" class="graph" transform="scale(1.33 1.33) rotate(0) translate(4 1545)">
<title>G</title>
<polygon fill="white" stroke="transparent" points="-4,4 -4,-1545 378.5,-1545 378.5,4 -4,4"/>
<!-- 2228342482832 -->
<g id="node1" class="node">
<title>2228342482832</title>
<polygon fill="none" stroke="black" points="75,-1494.5 75,-1540.5 327,-1540.5 327,-1494.5 75,-1494.5"/>
<text text-anchor="middle" x="113.5" y="-1525.3" font-family="Times New Roman,serif" font-size="14.00">input_5</text>
<polyline fill="none" stroke="black" points="75,-1517.5 152,-1517.5 "/>
<text text-anchor="middle" x="113.5" y="-1502.3" font-family="Times New Roman,serif" font-size="14.00">InputLayer</text>
<polyline fill="none" stroke="black" points="152,-1494.5 152,-1540.5 "/>
<text text-anchor="middle" x="179.5" y="-1525.3" font-family="Times New Roman,serif" font-size="14.00">input:</text>
<polyline fill="none" stroke="black" points="152,-1517.5 207,-1517.5 "/>
<text text-anchor="middle" x="179.5" y="-1502.3" font-family="Times New Roman,serif" font-size="14.00">output:</text>
<polyline fill="none" stroke="black" points="207,-1494.5 207,-1540.5 "/>
<text text-anchor="middle" x="267" y="-1525.3" font-family="Times New Roman,serif" font-size="14.00">[(None, 35, 55, 1)]</text>
<polyline fill="none" stroke="black" points="207,-1517.5 327,-1517.5 "/>
<text text-anchor="middle" x="267" y="-1502.3" font-family="Times New Roman,serif" font-size="14.00">[(None, 35, 55, 1)]</text>
</g>
<!-- 2228074080192 -->
<g id="node2" class="node">
<title>2228074080192</title>
<polygon fill="none" stroke="black" points="76,-1411.5 76,-1457.5 326,-1457.5 326,-1411.5 76,-1411.5"/>
<text text-anchor="middle" x="114.5" y="-1442.3" font-family="Times New Roman,serif" font-size="14.00">conv2d_30</text>
<polyline fill="none" stroke="black" points="76,-1434.5 153,-1434.5 "/>
<text text-anchor="middle" x="114.5" y="-1419.3" font-family="Times New Roman,serif" font-size="14.00">Conv2D</text>
<polyline fill="none" stroke="black" points="153,-1411.5 153,-1457.5 "/>
<text text-anchor="middle" x="180.5" y="-1442.3" font-family="Times New Roman,serif" font-size="14.00">input:</text>
<polyline fill="none" stroke="black" points="153,-1434.5 208,-1434.5 "/>
<text text-anchor="middle" x="180.5" y="-1419.3" font-family="Times New Roman,serif" font-size="14.00">output:</text>
<polyline fill="none" stroke="black" points="208,-1411.5 208,-1457.5 "/>
<text text-anchor="middle" x="267" y="-1442.3" font-family="Times New Roman,serif" font-size="14.00">(None, 35, 55, 1)</text>
<polyline fill="none" stroke="black" points="208,-1434.5 326,-1434.5 "/>
<text text-anchor="middle" x="267" y="-1419.3" font-family="Times New Roman,serif" font-size="14.00">(None, 35, 55, 64)</text>
</g>
<!-- 2228342482832&#45;&gt;2228074080192 -->
<g id="edge1" class="edge">
<title>2228342482832&#45;&gt;2228074080192</title>
<path fill="none" stroke="black" d="M201,-1494.37C201,-1486.15 201,-1476.66 201,-1467.73"/>
<polygon fill="black" stroke="black" points="204.5,-1467.61 201,-1457.61 197.5,-1467.61 204.5,-1467.61"/>
</g>
<!-- 2229301096800 -->
<g id="node3" class="node">
<title>2229301096800</title>
<polygon fill="none" stroke="black" points="0,-1328.5 0,-1374.5 250,-1374.5 250,-1328.5 0,-1328.5"/>
<text text-anchor="middle" x="38.5" y="-1359.3" font-family="Times New Roman,serif" font-size="14.00">conv2d_31</text>
<polyline fill="none" stroke="black" points="0,-1351.5 77,-1351.5 "/>
<text text-anchor="middle" x="38.5" y="-1336.3" font-family="Times New Roman,serif" font-size="14.00">Conv2D</text>
<polyline fill="none" stroke="black" points="77,-1328.5 77,-1374.5 "/>
<text text-anchor="middle" x="104.5" y="-1359.3" font-family="Times New Roman,serif" font-size="14.00">input:</text>
<polyline fill="none" stroke="black" points="77,-1351.5 132,-1351.5 "/>
<text text-anchor="middle" x="104.5" y="-1336.3" font-family="Times New Roman,serif" font-size="14.00">output:</text>
<polyline fill="none" stroke="black" points="132,-1328.5 132,-1374.5 "/>
<text text-anchor="middle" x="191" y="-1359.3" font-family="Times New Roman,serif" font-size="14.00">(None, 35, 55, 64)</text>
<polyline fill="none" stroke="black" points="132,-1351.5 250,-1351.5 "/>
<text text-anchor="middle" x="191" y="-1336.3" font-family="Times New Roman,serif" font-size="14.00">(None, 35, 55, 64)</text>
</g>
<!-- 2228074080192&#45;&gt;2229301096800 -->
<g id="edge2" class="edge">
<title>2228074080192&#45;&gt;2229301096800</title>
<path fill="none" stroke="black" d="M180.23,-1411.37C171.77,-1402.35 161.86,-1391.79 152.79,-1382.12"/>
<polygon fill="black" stroke="black" points="155.14,-1379.5 145.74,-1374.61 150.03,-1384.29 155.14,-1379.5"/>
</g>
<!-- 2228411287296 -->
<g id="node5" class="node">
<title>2228411287296</title>
<polygon fill="none" stroke="black" points="30.5,-1162.5 30.5,-1208.5 371.5,-1208.5 371.5,-1162.5 30.5,-1162.5"/>
<text text-anchor="middle" x="55.5" y="-1193.3" font-family="Times New Roman,serif" font-size="14.00">add_8</text>
<polyline fill="none" stroke="black" points="30.5,-1185.5 80.5,-1185.5 "/>
<text text-anchor="middle" x="55.5" y="-1170.3" font-family="Times New Roman,serif" font-size="14.00">Add</text>
<polyline fill="none" stroke="black" points="80.5,-1162.5 80.5,-1208.5 "/>
<text text-anchor="middle" x="108" y="-1193.3" font-family="Times New Roman,serif" font-size="14.00">input:</text>
<polyline fill="none" stroke="black" points="80.5,-1185.5 135.5,-1185.5 "/>
<text text-anchor="middle" x="108" y="-1170.3" font-family="Times New Roman,serif" font-size="14.00">output:</text>
<polyline fill="none" stroke="black" points="135.5,-1162.5 135.5,-1208.5 "/>
<text text-anchor="middle" x="253.5" y="-1193.3" font-family="Times New Roman,serif" font-size="14.00">[(None, 35, 55, 64), (None, 35, 55, 64)]</text>
<polyline fill="none" stroke="black" points="135.5,-1185.5 371.5,-1185.5 "/>
<text text-anchor="middle" x="253.5" y="-1170.3" font-family="Times New Roman,serif" font-size="14.00">(None, 35, 55, 64)</text>
</g>
<!-- 2228074080192&#45;&gt;2228411287296 -->
<g id="edge4" class="edge">
<title>2228074080192&#45;&gt;2228411287296</title>
<path fill="none" stroke="black" d="M231.15,-1411.5C242.09,-1401.69 253.17,-1389.15 259,-1375 281,-1321.57 281,-1298.43 259,-1245 254.49,-1234.06 246.84,-1224.07 238.54,-1215.58"/>
<polygon fill="black" stroke="black" points="240.8,-1212.89 231.15,-1208.5 235.96,-1217.94 240.8,-1212.89"/>
</g>
<!-- 2228411099120 -->
<g id="node4" class="node">
<title>2228411099120</title>
<polygon fill="none" stroke="black" points="0,-1245.5 0,-1291.5 250,-1291.5 250,-1245.5 0,-1245.5"/>
<text text-anchor="middle" x="38.5" y="-1276.3" font-family="Times New Roman,serif" font-size="14.00">conv2d_32</text>
<polyline fill="none" stroke="black" points="0,-1268.5 77,-1268.5 "/>
<text text-anchor="middle" x="38.5" y="-1253.3" font-family="Times New Roman,serif" font-size="14.00">Conv2D</text>
<polyline fill="none" stroke="black" points="77,-1245.5 77,-1291.5 "/>
<text text-anchor="middle" x="104.5" y="-1276.3" font-family="Times New Roman,serif" font-size="14.00">input:</text>
<polyline fill="none" stroke="black" points="77,-1268.5 132,-1268.5 "/>
<text text-anchor="middle" x="104.5" y="-1253.3" font-family="Times New Roman,serif" font-size="14.00">output:</text>
<polyline fill="none" stroke="black" points="132,-1245.5 132,-1291.5 "/>
<text text-anchor="middle" x="191" y="-1276.3" font-family="Times New Roman,serif" font-size="14.00">(None, 35, 55, 64)</text>
<polyline fill="none" stroke="black" points="132,-1268.5 250,-1268.5 "/>
<text text-anchor="middle" x="191" y="-1253.3" font-family="Times New Roman,serif" font-size="14.00">(None, 35, 55, 64)</text>
</g>
<!-- 2229301096800&#45;&gt;2228411099120 -->
<g id="edge3" class="edge">
<title>2229301096800&#45;&gt;2228411099120</title>
<path fill="none" stroke="black" d="M125,-1328.37C125,-1320.15 125,-1310.66 125,-1301.73"/>
<polygon fill="black" stroke="black" points="128.5,-1301.61 125,-1291.61 121.5,-1301.61 128.5,-1301.61"/>
</g>
<!-- 2228411099120&#45;&gt;2228411287296 -->
<g id="edge5" class="edge">
<title>2228411099120&#45;&gt;2228411287296</title>
<path fill="none" stroke="black" d="M145.77,-1245.37C154.23,-1236.35 164.14,-1225.79 173.21,-1216.12"/>
<polygon fill="black" stroke="black" points="175.97,-1218.29 180.26,-1208.61 170.86,-1213.5 175.97,-1218.29"/>
</g>
<!-- 2229301116832 -->
<g id="node6" class="node">
<title>2229301116832</title>
<polygon fill="none" stroke="black" points="73,-1079.5 73,-1125.5 329,-1125.5 329,-1079.5 73,-1079.5"/>
<text text-anchor="middle" x="114.5" y="-1110.3" font-family="Times New Roman,serif" font-size="14.00">activation_8</text>
<polyline fill="none" stroke="black" points="73,-1102.5 156,-1102.5 "/>
<text text-anchor="middle" x="114.5" y="-1087.3" font-family="Times New Roman,serif" font-size="14.00">Activation</text>
<polyline fill="none" stroke="black" points="156,-1079.5 156,-1125.5 "/>
<text text-anchor="middle" x="183.5" y="-1110.3" font-family="Times New Roman,serif" font-size="14.00">input:</text>
<polyline fill="none" stroke="black" points="156,-1102.5 211,-1102.5 "/>
<text text-anchor="middle" x="183.5" y="-1087.3" font-family="Times New Roman,serif" font-size="14.00">output:</text>
<polyline fill="none" stroke="black" points="211,-1079.5 211,-1125.5 "/>
<text text-anchor="middle" x="270" y="-1110.3" font-family="Times New Roman,serif" font-size="14.00">(None, 35, 55, 64)</text>
<polyline fill="none" stroke="black" points="211,-1102.5 329,-1102.5 "/>
<text text-anchor="middle" x="270" y="-1087.3" font-family="Times New Roman,serif" font-size="14.00">(None, 35, 55, 64)</text>
</g>
<!-- 2228411287296&#45;&gt;2229301116832 -->
<g id="edge6" class="edge">
<title>2228411287296&#45;&gt;2229301116832</title>
<path fill="none" stroke="black" d="M201,-1162.37C201,-1154.15 201,-1144.66 201,-1135.73"/>
<polygon fill="black" stroke="black" points="204.5,-1135.61 201,-1125.61 197.5,-1135.61 204.5,-1135.61"/>
</g>
<!-- 2229306455664 -->
<g id="node7" class="node">
<title>2229306455664</title>
<polygon fill="none" stroke="black" points="0,-996.5 0,-1042.5 250,-1042.5 250,-996.5 0,-996.5"/>
<text text-anchor="middle" x="38.5" y="-1027.3" font-family="Times New Roman,serif" font-size="14.00">conv2d_33</text>
<polyline fill="none" stroke="black" points="0,-1019.5 77,-1019.5 "/>
<text text-anchor="middle" x="38.5" y="-1004.3" font-family="Times New Roman,serif" font-size="14.00">Conv2D</text>
<polyline fill="none" stroke="black" points="77,-996.5 77,-1042.5 "/>
<text text-anchor="middle" x="104.5" y="-1027.3" font-family="Times New Roman,serif" font-size="14.00">input:</text>
<polyline fill="none" stroke="black" points="77,-1019.5 132,-1019.5 "/>
<text text-anchor="middle" x="104.5" y="-1004.3" font-family="Times New Roman,serif" font-size="14.00">output:</text>
<polyline fill="none" stroke="black" points="132,-996.5 132,-1042.5 "/>
<text text-anchor="middle" x="191" y="-1027.3" font-family="Times New Roman,serif" font-size="14.00">(None, 35, 55, 64)</text>
<polyline fill="none" stroke="black" points="132,-1019.5 250,-1019.5 "/>
<text text-anchor="middle" x="191" y="-1004.3" font-family="Times New Roman,serif" font-size="14.00">(None, 35, 55, 64)</text>
</g>
<!-- 2229301116832&#45;&gt;2229306455664 -->
<g id="edge7" class="edge">
<title>2229301116832&#45;&gt;2229306455664</title>
<path fill="none" stroke="black" d="M180.23,-1079.37C171.77,-1070.35 161.86,-1059.79 152.79,-1050.12"/>
<polygon fill="black" stroke="black" points="155.14,-1047.5 145.74,-1042.61 150.03,-1052.29 155.14,-1047.5"/>
</g>
<!-- 2229301064656 -->
<g id="node9" class="node">
<title>2229301064656</title>
<polygon fill="none" stroke="black" points="30.5,-830.5 30.5,-876.5 371.5,-876.5 371.5,-830.5 30.5,-830.5"/>
<text text-anchor="middle" x="55.5" y="-861.3" font-family="Times New Roman,serif" font-size="14.00">add_9</text>
<polyline fill="none" stroke="black" points="30.5,-853.5 80.5,-853.5 "/>
<text text-anchor="middle" x="55.5" y="-838.3" font-family="Times New Roman,serif" font-size="14.00">Add</text>
<polyline fill="none" stroke="black" points="80.5,-830.5 80.5,-876.5 "/>
<text text-anchor="middle" x="108" y="-861.3" font-family="Times New Roman,serif" font-size="14.00">input:</text>
<polyline fill="none" stroke="black" points="80.5,-853.5 135.5,-853.5 "/>
<text text-anchor="middle" x="108" y="-838.3" font-family="Times New Roman,serif" font-size="14.00">output:</text>
<polyline fill="none" stroke="black" points="135.5,-830.5 135.5,-876.5 "/>
<text text-anchor="middle" x="253.5" y="-861.3" font-family="Times New Roman,serif" font-size="14.00">[(None, 35, 55, 64), (None, 35, 55, 64)]</text>
<polyline fill="none" stroke="black" points="135.5,-853.5 371.5,-853.5 "/>
<text text-anchor="middle" x="253.5" y="-838.3" font-family="Times New Roman,serif" font-size="14.00">(None, 35, 55, 64)</text>
</g>
<!-- 2229301116832&#45;&gt;2229301064656 -->
<g id="edge9" class="edge">
<title>2229301116832&#45;&gt;2229301064656</title>
<path fill="none" stroke="black" d="M231.15,-1079.5C242.09,-1069.69 253.17,-1057.15 259,-1043 281,-989.57 281,-966.43 259,-913 254.49,-902.06 246.84,-892.07 238.54,-883.58"/>
<polygon fill="black" stroke="black" points="240.8,-880.89 231.15,-876.5 235.96,-885.94 240.8,-880.89"/>
</g>
<!-- 2229306454752 -->
<g id="node8" class="node">
<title>2229306454752</title>
<polygon fill="none" stroke="black" points="0,-913.5 0,-959.5 250,-959.5 250,-913.5 0,-913.5"/>
<text text-anchor="middle" x="38.5" y="-944.3" font-family="Times New Roman,serif" font-size="14.00">conv2d_34</text>
<polyline fill="none" stroke="black" points="0,-936.5 77,-936.5 "/>
<text text-anchor="middle" x="38.5" y="-921.3" font-family="Times New Roman,serif" font-size="14.00">Conv2D</text>
<polyline fill="none" stroke="black" points="77,-913.5 77,-959.5 "/>
<text text-anchor="middle" x="104.5" y="-944.3" font-family="Times New Roman,serif" font-size="14.00">input:</text>
<polyline fill="none" stroke="black" points="77,-936.5 132,-936.5 "/>
<text text-anchor="middle" x="104.5" y="-921.3" font-family="Times New Roman,serif" font-size="14.00">output:</text>
<polyline fill="none" stroke="black" points="132,-913.5 132,-959.5 "/>
<text text-anchor="middle" x="191" y="-944.3" font-family="Times New Roman,serif" font-size="14.00">(None, 35, 55, 64)</text>
<polyline fill="none" stroke="black" points="132,-936.5 250,-936.5 "/>
<text text-anchor="middle" x="191" y="-921.3" font-family="Times New Roman,serif" font-size="14.00">(None, 35, 55, 64)</text>
</g>
<!-- 2229306455664&#45;&gt;2229306454752 -->
<g id="edge8" class="edge">
<title>2229306455664&#45;&gt;2229306454752</title>
<path fill="none" stroke="black" d="M125,-996.37C125,-988.15 125,-978.66 125,-969.73"/>
<polygon fill="black" stroke="black" points="128.5,-969.61 125,-959.61 121.5,-969.61 128.5,-969.61"/>
</g>
<!-- 2229306454752&#45;&gt;2229301064656 -->
<g id="edge10" class="edge">
<title>2229306454752&#45;&gt;2229301064656</title>
<path fill="none" stroke="black" d="M145.77,-913.37C154.23,-904.35 164.14,-893.79 173.21,-884.12"/>
<polygon fill="black" stroke="black" points="175.97,-886.29 180.26,-876.61 170.86,-881.5 175.97,-886.29"/>
</g>
<!-- 2228074827296 -->
<g id="node10" class="node">
<title>2228074827296</title>
<polygon fill="none" stroke="black" points="73,-747.5 73,-793.5 329,-793.5 329,-747.5 73,-747.5"/>
<text text-anchor="middle" x="114.5" y="-778.3" font-family="Times New Roman,serif" font-size="14.00">activation_9</text>
<polyline fill="none" stroke="black" points="73,-770.5 156,-770.5 "/>
<text text-anchor="middle" x="114.5" y="-755.3" font-family="Times New Roman,serif" font-size="14.00">Activation</text>
<polyline fill="none" stroke="black" points="156,-747.5 156,-793.5 "/>
<text text-anchor="middle" x="183.5" y="-778.3" font-family="Times New Roman,serif" font-size="14.00">input:</text>
<polyline fill="none" stroke="black" points="156,-770.5 211,-770.5 "/>
<text text-anchor="middle" x="183.5" y="-755.3" font-family="Times New Roman,serif" font-size="14.00">output:</text>
<polyline fill="none" stroke="black" points="211,-747.5 211,-793.5 "/>
<text text-anchor="middle" x="270" y="-778.3" font-family="Times New Roman,serif" font-size="14.00">(None, 35, 55, 64)</text>
<polyline fill="none" stroke="black" points="211,-770.5 329,-770.5 "/>
<text text-anchor="middle" x="270" y="-755.3" font-family="Times New Roman,serif" font-size="14.00">(None, 35, 55, 64)</text>
</g>
<!-- 2229301064656&#45;&gt;2228074827296 -->
<g id="edge11" class="edge">
<title>2229301064656&#45;&gt;2228074827296</title>
<path fill="none" stroke="black" d="M201,-830.37C201,-822.15 201,-812.66 201,-803.73"/>
<polygon fill="black" stroke="black" points="204.5,-803.61 201,-793.61 197.5,-803.61 204.5,-803.61"/>
</g>
<!-- 2229306400048 -->
<g id="node11" class="node">
<title>2229306400048</title>
<polygon fill="none" stroke="black" points="0,-664.5 0,-710.5 250,-710.5 250,-664.5 0,-664.5"/>
<text text-anchor="middle" x="38.5" y="-695.3" font-family="Times New Roman,serif" font-size="14.00">conv2d_35</text>
<polyline fill="none" stroke="black" points="0,-687.5 77,-687.5 "/>
<text text-anchor="middle" x="38.5" y="-672.3" font-family="Times New Roman,serif" font-size="14.00">Conv2D</text>
<polyline fill="none" stroke="black" points="77,-664.5 77,-710.5 "/>
<text text-anchor="middle" x="104.5" y="-695.3" font-family="Times New Roman,serif" font-size="14.00">input:</text>
<polyline fill="none" stroke="black" points="77,-687.5 132,-687.5 "/>
<text text-anchor="middle" x="104.5" y="-672.3" font-family="Times New Roman,serif" font-size="14.00">output:</text>
<polyline fill="none" stroke="black" points="132,-664.5 132,-710.5 "/>
<text text-anchor="middle" x="191" y="-695.3" font-family="Times New Roman,serif" font-size="14.00">(None, 35, 55, 64)</text>
<polyline fill="none" stroke="black" points="132,-687.5 250,-687.5 "/>
<text text-anchor="middle" x="191" y="-672.3" font-family="Times New Roman,serif" font-size="14.00">(None, 35, 55, 64)</text>
</g>
<!-- 2228074827296&#45;&gt;2229306400048 -->
<g id="edge12" class="edge">
<title>2228074827296&#45;&gt;2229306400048</title>
<path fill="none" stroke="black" d="M180.23,-747.37C171.77,-738.35 161.86,-727.79 152.79,-718.12"/>
<polygon fill="black" stroke="black" points="155.14,-715.5 145.74,-710.61 150.03,-720.29 155.14,-715.5"/>
</g>
<!-- 2228072363392 -->
<g id="node13" class="node">
<title>2228072363392</title>
<polygon fill="none" stroke="black" points="27.5,-498.5 27.5,-544.5 374.5,-544.5 374.5,-498.5 27.5,-498.5"/>
<text text-anchor="middle" x="55.5" y="-529.3" font-family="Times New Roman,serif" font-size="14.00">add_10</text>
<polyline fill="none" stroke="black" points="27.5,-521.5 83.5,-521.5 "/>
<text text-anchor="middle" x="55.5" y="-506.3" font-family="Times New Roman,serif" font-size="14.00">Add</text>
<polyline fill="none" stroke="black" points="83.5,-498.5 83.5,-544.5 "/>
<text text-anchor="middle" x="111" y="-529.3" font-family="Times New Roman,serif" font-size="14.00">input:</text>
<polyline fill="none" stroke="black" points="83.5,-521.5 138.5,-521.5 "/>
<text text-anchor="middle" x="111" y="-506.3" font-family="Times New Roman,serif" font-size="14.00">output:</text>
<polyline fill="none" stroke="black" points="138.5,-498.5 138.5,-544.5 "/>
<text text-anchor="middle" x="256.5" y="-529.3" font-family="Times New Roman,serif" font-size="14.00">[(None, 35, 55, 64), (None, 35, 55, 64)]</text>
<polyline fill="none" stroke="black" points="138.5,-521.5 374.5,-521.5 "/>
<text text-anchor="middle" x="256.5" y="-506.3" font-family="Times New Roman,serif" font-size="14.00">(None, 35, 55, 64)</text>
</g>
<!-- 2228074827296&#45;&gt;2228072363392 -->
<g id="edge14" class="edge">
<title>2228074827296&#45;&gt;2228072363392</title>
<path fill="none" stroke="black" d="M231.15,-747.5C242.09,-737.69 253.17,-725.15 259,-711 281,-657.57 281,-634.43 259,-581 254.49,-570.06 246.84,-560.07 238.54,-551.58"/>
<polygon fill="black" stroke="black" points="240.8,-548.89 231.15,-544.5 235.96,-553.94 240.8,-548.89"/>
</g>
<!-- 2229306401552 -->
<g id="node12" class="node">
<title>2229306401552</title>
<polygon fill="none" stroke="black" points="0,-581.5 0,-627.5 250,-627.5 250,-581.5 0,-581.5"/>
<text text-anchor="middle" x="38.5" y="-612.3" font-family="Times New Roman,serif" font-size="14.00">conv2d_36</text>
<polyline fill="none" stroke="black" points="0,-604.5 77,-604.5 "/>
<text text-anchor="middle" x="38.5" y="-589.3" font-family="Times New Roman,serif" font-size="14.00">Conv2D</text>
<polyline fill="none" stroke="black" points="77,-581.5 77,-627.5 "/>
<text text-anchor="middle" x="104.5" y="-612.3" font-family="Times New Roman,serif" font-size="14.00">input:</text>
<polyline fill="none" stroke="black" points="77,-604.5 132,-604.5 "/>
<text text-anchor="middle" x="104.5" y="-589.3" font-family="Times New Roman,serif" font-size="14.00">output:</text>
<polyline fill="none" stroke="black" points="132,-581.5 132,-627.5 "/>
<text text-anchor="middle" x="191" y="-612.3" font-family="Times New Roman,serif" font-size="14.00">(None, 35, 55, 64)</text>
<polyline fill="none" stroke="black" points="132,-604.5 250,-604.5 "/>
<text text-anchor="middle" x="191" y="-589.3" font-family="Times New Roman,serif" font-size="14.00">(None, 35, 55, 64)</text>
</g>
<!-- 2229306400048&#45;&gt;2229306401552 -->
<g id="edge13" class="edge">
<title>2229306400048&#45;&gt;2229306401552</title>
<path fill="none" stroke="black" d="M125,-664.37C125,-656.15 125,-646.66 125,-637.73"/>
<polygon fill="black" stroke="black" points="128.5,-637.61 125,-627.61 121.5,-637.61 128.5,-637.61"/>
</g>
<!-- 2229306401552&#45;&gt;2228072363392 -->
<g id="edge15" class="edge">
<title>2229306401552&#45;&gt;2228072363392</title>
<path fill="none" stroke="black" d="M145.77,-581.37C154.23,-572.35 164.14,-561.79 173.21,-552.12"/>
<polygon fill="black" stroke="black" points="175.97,-554.29 180.26,-544.61 170.86,-549.5 175.97,-554.29"/>
</g>
<!-- 2229301115344 -->
<g id="node14" class="node">
<title>2229301115344</title>
<polygon fill="none" stroke="black" points="69.5,-415.5 69.5,-461.5 332.5,-461.5 332.5,-415.5 69.5,-415.5"/>
<text text-anchor="middle" x="114.5" y="-446.3" font-family="Times New Roman,serif" font-size="14.00">activation_10</text>
<polyline fill="none" stroke="black" points="69.5,-438.5 159.5,-438.5 "/>
<text text-anchor="middle" x="114.5" y="-423.3" font-family="Times New Roman,serif" font-size="14.00">Activation</text>
<polyline fill="none" stroke="black" points="159.5,-415.5 159.5,-461.5 "/>
<text text-anchor="middle" x="187" y="-446.3" font-family="Times New Roman,serif" font-size="14.00">input:</text>
<polyline fill="none" stroke="black" points="159.5,-438.5 214.5,-438.5 "/>
<text text-anchor="middle" x="187" y="-423.3" font-family="Times New Roman,serif" font-size="14.00">output:</text>
<polyline fill="none" stroke="black" points="214.5,-415.5 214.5,-461.5 "/>
<text text-anchor="middle" x="273.5" y="-446.3" font-family="Times New Roman,serif" font-size="14.00">(None, 35, 55, 64)</text>
<polyline fill="none" stroke="black" points="214.5,-438.5 332.5,-438.5 "/>
<text text-anchor="middle" x="273.5" y="-423.3" font-family="Times New Roman,serif" font-size="14.00">(None, 35, 55, 64)</text>
</g>
<!-- 2228072363392&#45;&gt;2229301115344 -->
<g id="edge16" class="edge">
<title>2228072363392&#45;&gt;2229301115344</title>
<path fill="none" stroke="black" d="M201,-498.37C201,-490.15 201,-480.66 201,-471.73"/>
<polygon fill="black" stroke="black" points="204.5,-471.61 201,-461.61 197.5,-471.61 204.5,-471.61"/>
</g>
<!-- 2229306396096 -->
<g id="node15" class="node">
<title>2229306396096</title>
<polygon fill="none" stroke="black" points="0,-332.5 0,-378.5 250,-378.5 250,-332.5 0,-332.5"/>
<text text-anchor="middle" x="38.5" y="-363.3" font-family="Times New Roman,serif" font-size="14.00">conv2d_37</text>
<polyline fill="none" stroke="black" points="0,-355.5 77,-355.5 "/>
<text text-anchor="middle" x="38.5" y="-340.3" font-family="Times New Roman,serif" font-size="14.00">Conv2D</text>
<polyline fill="none" stroke="black" points="77,-332.5 77,-378.5 "/>
<text text-anchor="middle" x="104.5" y="-363.3" font-family="Times New Roman,serif" font-size="14.00">input:</text>
<polyline fill="none" stroke="black" points="77,-355.5 132,-355.5 "/>
<text text-anchor="middle" x="104.5" y="-340.3" font-family="Times New Roman,serif" font-size="14.00">output:</text>
<polyline fill="none" stroke="black" points="132,-332.5 132,-378.5 "/>
<text text-anchor="middle" x="191" y="-363.3" font-family="Times New Roman,serif" font-size="14.00">(None, 35, 55, 64)</text>
<polyline fill="none" stroke="black" points="132,-355.5 250,-355.5 "/>
<text text-anchor="middle" x="191" y="-340.3" font-family="Times New Roman,serif" font-size="14.00">(None, 35, 55, 64)</text>
</g>
<!-- 2229301115344&#45;&gt;2229306396096 -->
<g id="edge17" class="edge">
<title>2229301115344&#45;&gt;2229306396096</title>
<path fill="none" stroke="black" d="M180.23,-415.37C171.77,-406.35 161.86,-395.79 152.79,-386.12"/>
<polygon fill="black" stroke="black" points="155.14,-383.5 145.74,-378.61 150.03,-388.29 155.14,-383.5"/>
</g>
<!-- 2229301115872 -->
<g id="node17" class="node">
<title>2229301115872</title>
<polygon fill="none" stroke="black" points="27.5,-166.5 27.5,-212.5 374.5,-212.5 374.5,-166.5 27.5,-166.5"/>
<text text-anchor="middle" x="55.5" y="-197.3" font-family="Times New Roman,serif" font-size="14.00">add_11</text>
<polyline fill="none" stroke="black" points="27.5,-189.5 83.5,-189.5 "/>
<text text-anchor="middle" x="55.5" y="-174.3" font-family="Times New Roman,serif" font-size="14.00">Add</text>
<polyline fill="none" stroke="black" points="83.5,-166.5 83.5,-212.5 "/>
<text text-anchor="middle" x="111" y="-197.3" font-family="Times New Roman,serif" font-size="14.00">input:</text>
<polyline fill="none" stroke="black" points="83.5,-189.5 138.5,-189.5 "/>
<text text-anchor="middle" x="111" y="-174.3" font-family="Times New Roman,serif" font-size="14.00">output:</text>
<polyline fill="none" stroke="black" points="138.5,-166.5 138.5,-212.5 "/>
<text text-anchor="middle" x="256.5" y="-197.3" font-family="Times New Roman,serif" font-size="14.00">[(None, 35, 55, 64), (None, 35, 55, 64)]</text>
<polyline fill="none" stroke="black" points="138.5,-189.5 374.5,-189.5 "/>
<text text-anchor="middle" x="256.5" y="-174.3" font-family="Times New Roman,serif" font-size="14.00">(None, 35, 55, 64)</text>
</g>
<!-- 2229301115344&#45;&gt;2229301115872 -->
<g id="edge19" class="edge">
<title>2229301115344&#45;&gt;2229301115872</title>
<path fill="none" stroke="black" d="M231.15,-415.5C242.09,-405.69 253.17,-393.15 259,-379 281,-325.57 281,-302.43 259,-249 254.49,-238.06 246.84,-228.07 238.54,-219.58"/>
<polygon fill="black" stroke="black" points="240.8,-216.89 231.15,-212.5 235.96,-221.94 240.8,-216.89"/>
</g>
<!-- 2229306543552 -->
<g id="node16" class="node">
<title>2229306543552</title>
<polygon fill="none" stroke="black" points="0,-249.5 0,-295.5 250,-295.5 250,-249.5 0,-249.5"/>
<text text-anchor="middle" x="38.5" y="-280.3" font-family="Times New Roman,serif" font-size="14.00">conv2d_38</text>
<polyline fill="none" stroke="black" points="0,-272.5 77,-272.5 "/>
<text text-anchor="middle" x="38.5" y="-257.3" font-family="Times New Roman,serif" font-size="14.00">Conv2D</text>
<polyline fill="none" stroke="black" points="77,-249.5 77,-295.5 "/>
<text text-anchor="middle" x="104.5" y="-280.3" font-family="Times New Roman,serif" font-size="14.00">input:</text>
<polyline fill="none" stroke="black" points="77,-272.5 132,-272.5 "/>
<text text-anchor="middle" x="104.5" y="-257.3" font-family="Times New Roman,serif" font-size="14.00">output:</text>
<polyline fill="none" stroke="black" points="132,-249.5 132,-295.5 "/>
<text text-anchor="middle" x="191" y="-280.3" font-family="Times New Roman,serif" font-size="14.00">(None, 35, 55, 64)</text>
<polyline fill="none" stroke="black" points="132,-272.5 250,-272.5 "/>
<text text-anchor="middle" x="191" y="-257.3" font-family="Times New Roman,serif" font-size="14.00">(None, 35, 55, 64)</text>
</g>
<!-- 2229306396096&#45;&gt;2229306543552 -->
<g id="edge18" class="edge">
<title>2229306396096&#45;&gt;2229306543552</title>
<path fill="none" stroke="black" d="M125,-332.37C125,-324.15 125,-314.66 125,-305.73"/>
<polygon fill="black" stroke="black" points="128.5,-305.61 125,-295.61 121.5,-305.61 128.5,-305.61"/>
</g>
<!-- 2229306543552&#45;&gt;2229301115872 -->
<g id="edge20" class="edge">
<title>2229306543552&#45;&gt;2229301115872</title>
<path fill="none" stroke="black" d="M145.77,-249.37C154.23,-240.35 164.14,-229.79 173.21,-220.12"/>
<polygon fill="black" stroke="black" points="175.97,-222.29 180.26,-212.61 170.86,-217.5 175.97,-222.29"/>
</g>
<!-- 2229306400528 -->
<g id="node18" class="node">
<title>2229306400528</title>
<polygon fill="none" stroke="black" points="69.5,-83.5 69.5,-129.5 332.5,-129.5 332.5,-83.5 69.5,-83.5"/>
<text text-anchor="middle" x="114.5" y="-114.3" font-family="Times New Roman,serif" font-size="14.00">activation_11</text>
<polyline fill="none" stroke="black" points="69.5,-106.5 159.5,-106.5 "/>
<text text-anchor="middle" x="114.5" y="-91.3" font-family="Times New Roman,serif" font-size="14.00">Activation</text>
<polyline fill="none" stroke="black" points="159.5,-83.5 159.5,-129.5 "/>
<text text-anchor="middle" x="187" y="-114.3" font-family="Times New Roman,serif" font-size="14.00">input:</text>
<polyline fill="none" stroke="black" points="159.5,-106.5 214.5,-106.5 "/>
<text text-anchor="middle" x="187" y="-91.3" font-family="Times New Roman,serif" font-size="14.00">output:</text>
<polyline fill="none" stroke="black" points="214.5,-83.5 214.5,-129.5 "/>
<text text-anchor="middle" x="273.5" y="-114.3" font-family="Times New Roman,serif" font-size="14.00">(None, 35, 55, 64)</text>
<polyline fill="none" stroke="black" points="214.5,-106.5 332.5,-106.5 "/>
<text text-anchor="middle" x="273.5" y="-91.3" font-family="Times New Roman,serif" font-size="14.00">(None, 35, 55, 64)</text>
</g>
<!-- 2229301115872&#45;&gt;2229306400528 -->
<g id="edge21" class="edge">
<title>2229301115872&#45;&gt;2229306400528</title>
<path fill="none" stroke="black" d="M201,-166.37C201,-158.15 201,-148.66 201,-139.73"/>
<polygon fill="black" stroke="black" points="204.5,-139.61 201,-129.61 197.5,-139.61 204.5,-139.61"/>
</g>
<!-- 2229306568032 -->
<g id="node19" class="node">
<title>2229306568032</title>
<polygon fill="none" stroke="black" points="76,-0.5 76,-46.5 326,-46.5 326,-0.5 76,-0.5"/>
<text text-anchor="middle" x="114.5" y="-31.3" font-family="Times New Roman,serif" font-size="14.00">conv2d_39</text>
<polyline fill="none" stroke="black" points="76,-23.5 153,-23.5 "/>
<text text-anchor="middle" x="114.5" y="-8.3" font-family="Times New Roman,serif" font-size="14.00">Conv2D</text>
<polyline fill="none" stroke="black" points="153,-0.5 153,-46.5 "/>
<text text-anchor="middle" x="180.5" y="-31.3" font-family="Times New Roman,serif" font-size="14.00">input:</text>
<polyline fill="none" stroke="black" points="153,-23.5 208,-23.5 "/>
<text text-anchor="middle" x="180.5" y="-8.3" font-family="Times New Roman,serif" font-size="14.00">output:</text>
<polyline fill="none" stroke="black" points="208,-0.5 208,-46.5 "/>
<text text-anchor="middle" x="267" y="-31.3" font-family="Times New Roman,serif" font-size="14.00">(None, 35, 55, 64)</text>
<polyline fill="none" stroke="black" points="208,-23.5 326,-23.5 "/>
<text text-anchor="middle" x="267" y="-8.3" font-family="Times New Roman,serif" font-size="14.00">(None, 35, 55, 1)</text>
</g>
<!-- 2229306400528&#45;&gt;2229306568032 -->
<g id="edge22" class="edge">
<title>2229306400528&#45;&gt;2229306568032</title>
<path fill="none" stroke="black" d="M201,-83.37C201,-75.15 201,-65.66 201,-56.73"/>
<polygon fill="black" stroke="black" points="204.5,-56.61 201,-46.61 197.5,-56.61 204.5,-56.61"/>
</g>
</g>
</svg>
